<?xml version="1.0" encoding="UTF-8"?>
<svg xmlns="http://www.w3.org/2000/svg" xmlns:xlink="http://www.w3.org/1999/xlink" viewBox="0 0 64 64" width="64px" height="64px">
<defs>
<linearGradient id="linear0" gradientUnits="userSpaceOnUse" x1="86" y1="17.917561" x2="86" y2="155.531006" gradientTransform="matrix(0.372093,0,0,0.372093,0,0)">
<stop offset="0" style="stop-color:rgb(16.470589%,96.078432%,59.607846%);stop-opacity:1;"/>
<stop offset="1" style="stop-color:rgb(0%,61.960787%,99.215686%);stop-opacity:1;"/>
</linearGradient>
<linearGradient id="linear1" gradientUnits="userSpaceOnUse" x1="86" y1="48.823811" x2="86" y2="122.762306" gradientTransform="matrix(0.372093,0,0,0.372093,0,0)">
<stop offset="0" style="stop-color:rgb(58.431375%,98.039216%,80.000001%);stop-opacity:1;"/>
<stop offset="1" style="stop-color:rgb(43.137255%,78.431374%,100%);stop-opacity:1;"/>
</linearGradient>
<linearGradient id="linear2" gradientUnits="userSpaceOnUse" x1="123.625" y1="34.265629" x2="123.625" y2="61.944191" gradientTransform="matrix(0.372093,0,0,0.372093,0,0)">
<stop offset="0" style="stop-color:rgb(58.431375%,98.039216%,80.000001%);stop-opacity:1;"/>
<stop offset="1" style="stop-color:rgb(43.137255%,78.431374%,100%);stop-opacity:1;"/>
</linearGradient>
</defs>
<g id="surface975370">
<path style=" stroke:none;fill-rule:nonzero;fill:url(#linear0);" d="M 44 57 L 20 57 C 12.832031 57 7 51.167969 7 44 L 7 20 C 7 12.832031 12.832031 7 20 7 L 44 7 C 51.167969 7 57 12.832031 57 20 L 57 44 C 57 51.167969 51.167969 57 44 57 Z M 20 9 C 13.933594 9 9 13.933594 9 20 L 9 44 C 9 50.066406 13.933594 55 20 55 L 44 55 C 50.066406 55 55 50.066406 55 44 L 55 20 C 55 13.933594 50.066406 9 44 9 Z M 20 9 "/>
<path style=" stroke:none;fill-rule:nonzero;fill:url(#linear1);" d="M 32 45 C 24.832031 45 19 39.167969 19 32 C 19 24.832031 24.832031 19 32 19 C 39.167969 19 45 24.832031 45 32 C 45 39.167969 39.167969 45 32 45 Z M 32 23 C 27.039062 23 23 27.039062 23 32 C 23 36.964844 27.039062 41 32 41 C 36.964844 41 41 36.964844 41 32 C 41 27.039062 36.964844 23 32 23 Z M 32 23 "/>
<path style=" stroke:none;fill-rule:nonzero;fill:url(#linear2);" d="M 46 15 C 44.34375 15 43 16.34375 43 18 C 43 19.65625 44.34375 21 46 21 C 47.65625 21 49 19.65625 49 18 C 49 16.34375 47.65625 15 46 15 Z M 46 15 "/>
</g>
</svg>
